<svg width="1476" height="772" viewBox="0 0 1476 772" fill="none" xmlns="http://www.w3.org/2000/svg">
<rect opacity="0.306627" x="1323.2" y="160.021" width="60.8122" height="60.8122" transform="rotate(45 1323.2 160.021)" fill="white"/>
<rect opacity="0.418953" x="1390" y="538" width="31" height="31" fill="white"/>
<rect opacity="0.642623" x="1374" width="32" height="32" fill="#F4F4F4"/>
<rect opacity="0.344495" x="68" y="169" width="17" height="17" fill="#F4F4F4"/>
<rect opacity="0.302394" x="349.747" y="618.912" width="41.9022" height="41.9022" transform="rotate(45 349.747 618.912)" fill="white"/>
<rect opacity="0.0607407" x="143.706" y="398.532" width="41.9022" height="39.8011" transform="rotate(45 143.706 398.532)" fill="black"/>
<ellipse cx="1457" cy="395.5" rx="19" ry="19.5" fill="#AFCBAD"/>
<path d="M115.5 766C115.5 769.079 113.221 771.5 110.5 771.5C107.779 771.5 105.5 769.079 105.5 766C105.5 762.921 107.779 760.5 110.5 760.5C113.221 760.5 115.5 762.921 115.5 766Z" stroke="#707070"/>
<path d="M261.5 505C261.5 508.079 259.221 510.5 256.5 510.5C253.779 510.5 251.5 508.079 251.5 505C251.5 501.921 253.779 499.5 256.5 499.5C259.221 499.5 261.5 501.921 261.5 505Z" stroke="#707070"/>
<circle cx="1329" cy="533" r="5.5" stroke="#707070"/>
</svg>
