<svg width="1476" height="872" viewBox="0 0 1476 872" fill="none" xmlns="http://www.w3.org/2000/svg">
<rect opacity="0.306627" x="1289.2" y="210.021" width="60.8122" height="60.8122" transform="rotate(45 1289.2 210.021)" fill="white"/>
<rect opacity="0.418953" x="1356" y="588" width="31" height="31" fill="white"/>
<rect opacity="0.642623" x="1340" y="50" width="32" height="32" fill="#F4F4F4"/>
<rect opacity="0.344495" x="34" y="219" width="17" height="17" fill="#F4F4F4"/>
<rect opacity="0.302394" x="315.747" y="668.912" width="41.9022" height="41.9022" transform="rotate(45 315.747 668.912)" fill="white"/>
<rect opacity="0.0607407" x="109.706" y="448.532" width="41.9022" height="39.8011" transform="rotate(45 109.706 448.532)" fill="black"/>
<ellipse cx="1423" cy="445.5" rx="19" ry="19.5" fill="#AFCBAD"/>
<path d="M81.5 816C81.5 819.079 79.2214 821.5 76.5 821.5C73.7786 821.5 71.5 819.079 71.5 816C71.5 812.921 73.7786 810.5 76.5 810.5C79.2214 810.5 81.5 812.921 81.5 816Z" stroke="#707070"/>
<path d="M227.5 555C227.5 558.079 225.221 560.5 222.5 560.5C219.779 560.5 217.5 558.079 217.5 555C217.5 551.921 219.779 549.5 222.5 549.5C225.221 549.5 227.5 551.921 227.5 555Z" stroke="#707070"/>
<circle cx="1295" cy="583" r="5.5" stroke="#707070"/>
</svg>
